# xmcd
#
# Track frame offsets:
# 150
# 12772
# 26750
# 36495
# 45520
# 60935
# 78835
# 94927
# 114900
# 127945
# 142625
# 154795
# 165605
# 184315
# 199925
# 213132
# 228560
# 238497
# 254480
# 266347
#
# Disc length: 3773 seconds
#
#
# Revision: 0
# Processed by: cddbd v1.5.1PL2 Copyright (c) Steve Scherf et al.
# Submitted via: FreeRIP 2.944 
#
DISCID=070ebb14
DTITLE=Various Artist - Christmas Line Dance
DYEAR=1997
DGENRE=Country
TTITLE0=Jingle My Bells
TTITLE1=I Only Want You For Christmas
TTITLE2=Rudolph The Red Nosed Reindeer
TTITLE3=Rockin' Around The Christmas Tree
TTITLE4=Baby Wanna Be By You
TTITLE5=Pretty Paper
TTITLE6=Santa Claus Is Comin' On A Boogie Woogie Choo Choo Train
TTITLE7=Christmas In Dixie (instructions included)
TTITLE8=Rockin' Little Christmas
TTITLE9=The Santa Claus Boogie (instructions included)
TTITLE10=Honky Tonk Christmas
TTITLE11=Santa Looked A Lot Like Daddy
TTITLE12=Oh What A Silent Night
TTITLE13=Rockin' This Christmas (instructions included)
TTITLE14=An Old Christmas Card
TTITLE15=Swingin' Home For Christmas
TTITLE16=Winter Wonderland (instructions included)
TTITLE17=Please Daddy, Don't Get Drunk This Christmas
TTITLE18=Santa Claus Is Comin' To Town
TTITLE19=White Christmas (instructions included)
EXTD=20 Great Yuletide Favourites
EXTT0=
EXTT1=
EXTT2=
EXTT3=
EXTT4=
EXTT5=
EXTT6=
EXTT7=
EXTT8=
EXTT9=
EXTT10=
EXTT11=
EXTT12=
EXTT13=
EXTT14=
EXTT15=
EXTT16=
EXTT17=
EXTT18=
EXTT19=
PLAYORDER=
